<?xml version="1.0" encoding="UTF-8"?>
<svg id="fetepass-lockup-dark" viewBox="0 0 2800 720" fill="none" xmlns="http://www.w3.org/2000/svg"><style>@import url('https://fonts.googleapis.com/css2?family=Rubik:wght@500;800&amp;display=swap');</style><rect width="2800" height="720" fill="#04080A"/><g transform="translate(60 -60) scale(0.78)"><path fill="#E8F1EE" fill-rule="evenodd" d="M312 140h400a96 96 0 0 1 96 96v396a48 48 0 0 0-48 48H264a48 48 0 0 0-48-48V236a96 96 0 0 1 96-96ZM476 236a32 32 0 0 0 0 64h72a32 32 0 0 0 0-64h-72Z"/><path d="M296 724h432" stroke="#E8F1EE" stroke-width="14" stroke-linecap="round" stroke-dasharray="0 40"/><g transform="translate(0 88)"><path fill="#1FBF8F" d="M216 728a48 48 0 0 0 48-48h496a48 48 0 0 0 48 48v60a96 96 0 0 1-96 96H312a96 96 0 0 1-96-96v-60Z"/></g></g><text x="760" y="492" font-family="Rubik" font-weight="800" font-size="400" letter-spacing="-16" fill="#E8F1EE">Fete<tspan fill="#1FBF8F">PASS</tspan></text></svg>
